# Blender 4.4.0
# www.blender.org
mtllib Untitled16.mtl
o Cube_cell.015
v -0.145524 1.875727 0.797947
v -0.413580 1.488721 -0.273320
v -1.475381 1.125905 0.347963
v -1.446315 1.074682 0.447575
v -1.275219 1.126004 0.247683
v -1.280676 2.884782 1.000000
v -1.280658 3.000000 1.000000
v -1.597155 3.000000 -0.057287
v -1.279860 1.290127 1.000000
v -0.226044 1.875887 1.000000
v -0.226292 3.000000 1.000000
v -0.145587 3.000000 0.797610
v -0.520121 3.000000 -0.598656
v -0.497395 3.000000 -0.610001
v -1.280676 2.884782 1.000000
v -1.280658 3.000000 1.000000
v -1.597155 3.000000 -0.057287
v -1.279860 1.290127 1.000000
v -0.226292 3.000000 1.000000
v -0.226044 1.875887 1.000000
v -0.145587 3.000000 0.797610
v -0.520121 3.000000 -0.598656
v -0.497395 3.000000 -0.610001
vn -0.9580 0.0001 0.2868
vn -0.9574 -0.0005 0.2887
vn -0.9602 -0.0020 0.2792
vn -0.2005 -0.8938 -0.4011
vn 0.4741 -0.8608 0.1848
vn -0.4382 -0.2172 -0.8722
vn 0.4770 -0.8580 0.1907
vn -0.4359 -0.2187 -0.8731
vn -0.0000 1.0000 -0.0000
vn -0.0000 -0.0000 1.0000
vn 0.9289 0.0002 0.3703
vn 0.9701 -0.0001 -0.2426
vt 0.025177 0.000000
vt 1.000000 0.000000
vt 1.000000 0.916393
vt 0.968623 0.943350
vt 0.000000 0.000000
vt 0.917072 0.000000
vt 0.916393 0.916393
vt 0.974153 0.974153
vt 1.000000 1.000000
vt 1.000000 0.974153
vt 0.025774 0.000000
vt 0.802505 0.000000
vt 1.000000 0.082928
vt 0.968237 0.968237
vt 1.000000 0.974226
vt 0.849822 0.617839
vt 0.830041 0.750000
vt 0.764143 0.750000
vt 0.759099 0.724701
vt 0.781087 0.548750
vt 0.782508 0.550168
vt 0.625000 0.955041
vt 0.620199 0.955042
vt 0.553755 0.954991
vt 0.578162 0.889128
vt 0.625000 0.889143
vt 0.957116 0.803309
vt 0.197495 0.000000
vt 0.957570 0.000000
vt 1.000000 0.042430
vt 0.968237 0.000000
s 0
usemtl Material
f 17/1/1 4/2/1 15/3/1 16/4/1
f 4/5/2 18/6/2 15/7/2
f 17/8/3 3/5/3 4/2/3
f 3/5/4 5/2/4 4/9/4
f 5/5/5 2/2/5 4/9/5
f 5/5/6 3/2/6 17/10/6 22/11/6
f 20/12/7 18/13/7 4/9/7 2/5/7 1/5/7
f 23/14/8 2/5/8 5/2/8 22/15/8
f 8/16/9 7/17/9 19/18/9 12/19/9 14/20/9 13/21/9
f 7/22/10 6/23/10 9/24/10 10/25/10 19/26/10
f 11/27/11 20/28/11 1/5/11 21/29/11
f 21/30/12 1/9/12 2/5/12 23/31/12
