# Blender 4.4.0
# www.blender.org
mtllib Untitled3.mtl
o Cube_cell.002
v 0.625723 -2.019894 0.001020
v 0.494266 -1.729497 -0.260928
v 0.545845 -1.387095 -0.568556
v 0.841203 -0.908780 -0.999262
v 0.713267 -1.033891 -0.886664
v 1.250351 -0.681379 -0.915412
v 0.597655 -1.043915 -0.705229
v 0.596167 -1.050042 -0.708337
v 2.000000 -0.781100 -1.000000
v 2.000000 -0.764684 -0.968237
v 1.754607 -0.762767 -1.000000
v 1.180175 -0.720054 -1.000000
v 1.141271 -0.741500 -1.000000
v 1.247326 -0.683247 1.000000
v 2.000000 -0.764849 1.000000
v 1.060036 -0.786675 -1.000000
v 1.125701 -0.750141 -1.000000
v 0.610145 -1.036888 1.000000
v 2.000000 -0.908018 -1.000000
v 0.914004 -0.908424 -1.000000
v 2.000000 -2.010357 -0.008059
v 0.872109 -0.908288 -1.000000
v 0.597184 -1.044250 1.000000
v 0.461823 -1.950821 1.000000
v 0.873072 -2.681846 1.000000
v 2.000000 -2.686126 1.000000
v 2.000000 -2.019601 0.000281
v 0.875564 -2.686217 1.000000
v 2.000000 -0.781100 -1.000000
v 1.754607 -0.762767 -1.000000
v 2.000000 -0.764684 -0.968237
v 1.180175 -0.720054 -1.000000
v 1.141271 -0.741500 -1.000000
v 1.060036 -0.786675 -1.000000
v 0.841203 -0.908780 -0.999262
v 2.000000 -0.764849 1.000000
v 1.125701 -0.750141 -1.000000
v 1.247326 -0.683247 1.000000
v 0.610145 -1.036888 1.000000
v 0.597184 -1.044250 1.000000
v 2.000000 -0.908018 -1.000000
v 0.914004 -0.908424 -1.000000
v 2.000000 -2.010357 -0.008059
v 0.872109 -0.908288 -1.000000
v 0.461823 -1.950821 1.000000
v 0.873072 -2.681846 1.000000
v 2.000000 -2.686126 1.000000
v 2.000000 -2.019601 0.000281
v 0.875564 -2.686217 1.000000
vn 0.0662 0.8864 -0.4581
vn 0.0659 0.8857 -0.4596
vn -0.4828 0.8758 0.0001
vn 0.0001 -0.6690 -0.7433
vn -0.4873 0.8733 -0.0023
vn -0.4864 0.8738 -0.0000
vn -0.4853 0.8744 0.0003
vn -0.0022 -0.6684 -0.7438
vn -0.0072 -0.6648 -0.7470
vn -0.7911 0.3717 -0.4858
vn -0.7840 0.4216 -0.4556
vn -0.9717 0.2362 -0.0002
vn -0.8665 -0.4874 -0.1079
vn -0.0003 -0.6699 -0.7425
vn -0.0050 -0.6679 -0.7442
vn -0.8632 -0.4921 -0.1124
vn -0.9892 0.1466 -0.0027
vn -0.8268 -0.1057 -0.5525
vn -0.0000 -0.8320 -0.5548
vn 1.0000 -0.0000 -0.0000
vn -0.0000 -0.0000 1.0000
vn -0.0003 0.0004 -1.0000
vn 0.1091 0.9940 0.0006
vn -0.9890 0.1480 0.0003
vt 1.000000 0.369385
vt 1.000000 1.000000
vt 0.062837 0.062837
vt 0.471011 0.062690
vt 0.369385 0.369385
vt 1.000000 0.371945
vt 1.000000 0.025230
vt 0.371944 0.371944
vt 0.023858 0.000000
vt 0.031830 0.000000
vt 1.000000 0.000000
vt 1.000000 0.936328
vt 0.952662 0.907155
vt 0.000000 0.000000
vt 1.000000 0.854742
vt 1.000000 0.976148
vt 0.854742 0.854742
vt 0.971424 0.000000
vt 1.000000 0.023884
vt 1.000000 0.976142
vt 0.976148 0.976148
vt 0.023884 0.023884
vt 1.000000 0.023612
vt 1.000000 0.692785
vt 0.936328 0.936328
vt 1.000000 0.014465
vt 0.692785 0.692785
vt 1.000000 0.028576
vt 0.961844 0.961844
vt 0.962214 0.000000
vt 1.000000 0.968170
vt 0.965231 0.965231
vt 1.000000 0.037786
vt 0.952774 0.000000
vt 1.000000 0.965231
vt 0.957231 0.909811
vt 0.047226 0.000000
vt 0.462166 0.500000
vt 0.467454 0.500000
vt 0.468138 0.503970
vt 0.468131 0.750000
vt 0.388078 0.750000
vt 0.415850 0.625035
vt 0.416235 0.623993
vt 0.388256 0.820433
vt 0.388074 0.820277
vt 0.471531 0.797042
vt 0.456796 0.836866
vt 0.456490 0.837676
vt 0.418716 0.846136
vt 0.469998 0.448761
vt 0.468218 0.484663
vt 0.467454 0.500000
vt 0.462166 0.500000
vt 0.462149 0.432125
vt 0.462155 0.429507
vt 0.462234 0.427845
vt 0.467222 0.441252
vt 0.468744 0.445356
vt 0.469104 0.446329
vt 1.000000 0.062837
vt 0.025230 0.025230
vt 0.963502 0.025590
vt 0.971475 0.971475
vt 0.961844 0.000000
s 0
usemtl Material
f 30/1/1 6/2/1 31/3/1 29/4/1
f 30/5/2 32/6/2 6/2/2
f 38/7/3 6/2/3 32/8/3 33/9/3
f 43/10/4 2/11/4 42/12/4 41/13/4
f 35/14/5 7/11/5 34/15/5
f 37/16/6 34/17/6 7/14/6 40/18/6 39/19/6
f 33/20/7 37/21/7 39/22/7 38/23/7
f 5/11/8 44/24/8 42/25/8 2/14/8
f 35/26/9 44/27/9 5/14/9
f 5/14/10 8/11/10 35/2/10
f 8/14/11 7/11/11 35/2/11
f 7/2/12 8/14/12 40/28/12
f 45/29/13 2/14/13 46/30/13
f 1/14/14 2/11/14 43/31/14 48/32/14
f 3/14/15 5/11/15 2/2/15
f 46/33/16 2/2/16 1/14/16 49/34/16
f 8/14/17 3/11/17 2/2/17
f 3/14/18 8/11/18 5/2/18
f 1/11/19 48/35/19 47/36/19 49/37/19
f 19/38/20 9/39/20 10/40/20 36/41/20 26/42/20 27/43/20 21/44/20
f 25/45/21 28/46/21 26/42/21 36/41/21 14/47/21 18/48/21 23/49/21 24/50/21
f 12/51/22 11/52/22 9/53/22 19/54/22 20/55/22 22/56/22 4/57/22 16/58/22 17/59/22 13/60/22
f 31/61/23 6/2/23 38/62/23 15/63/23
f 40/64/24 8/14/24 2/14/24 45/65/24
