# Blender 4.4.0
# www.blender.org
mtllib Untitled6.mtl
o Cube_cell.005
v -0.584383 -2.198497 0.390357
v -0.087628 -1.932907 -0.205899
v 0.293256 -2.491456 -0.662445
v 0.419765 -1.730934 -0.409183
v 0.493260 -1.730277 -0.260770
v 0.623615 -2.020900 0.000718
v -0.279643 -3.000000 1.000000
v -0.280139 -2.263456 1.000000
v -0.565614 -3.000000 0.429657
v -0.585066 -3.000000 0.390689
v -0.280070 -2.198345 1.000000
v 0.873734 -3.000000 1.000000
v 0.874230 -2.736530 1.000000
v 0.664181 -3.000000 0.159755
v 0.460331 -1.951833 1.000000
v -0.248184 -2.187678 1.000000
v 0.293186 -3.000000 -0.662304
v 0.871739 -2.683467 1.000000
v 0.616663 -3.000000 -0.014863
v 0.624366 -3.000000 0.000643
v 0.874192 -2.687862 1.000000
v -0.279643 -3.000000 1.000000
v -0.280139 -2.263456 1.000000
v -0.565614 -3.000000 0.429657
v -0.585066 -3.000000 0.390689
v -0.280070 -2.198345 1.000000
v 0.293186 -3.000000 -0.662304
v 0.873734 -3.000000 1.000000
v 0.874230 -2.736530 1.000000
v 0.664181 -3.000000 0.159755
v -0.248184 -2.187678 1.000000
v 0.460331 -1.951833 1.000000
v 0.616663 -3.000000 -0.014863
v 0.871739 -2.683467 1.000000
v 0.624366 -3.000000 0.000643
v 0.874192 -2.687862 1.000000
vn -0.8939 -0.0006 0.4482
vn -0.8947 0.0009 0.4466
vn 0.9703 -0.0018 -0.2420
vn -0.7681 -0.0000 -0.6404
vn -0.3133 0.9367 0.1562
vn -0.3129 0.9378 0.1508
vn -0.4648 0.3484 -0.8140
vn 0.8665 0.4873 0.1083
vn 0.8956 0.0007 -0.4449
vn 0.9701 0.0008 -0.2427
vn 0.8683 0.4846 0.1057
vn 0.8961 0.0027 -0.4438
vn 0.8946 -0.0001 -0.4469
vn -0.3120 0.9371 0.1565
vn -0.0000 -1.0000 -0.0000
vn -0.0000 -0.0000 1.0000
vt 0.133939 0.075291
vt 1.000000 0.076439
vt 1.000000 0.940963
vt 1.000000 0.000000
vt 1.000000 0.940952
vt 0.940963 0.940963
vt 0.076439 0.076439
vt 0.076399 0.000000
vt 0.151688 0.000000
vt 0.952706 0.000000
vt 0.952037 0.798910
vt 1.000000 1.000000
vt 0.000000 0.000000
vt 0.911243 0.000000
vt 0.940952 0.940952
vt 0.959860 0.959860
vt 1.000000 0.923601
vt 0.037859 0.000000
vt 1.000000 0.962093
vt 0.962173 0.962173
vt 1.000000 0.951513
vt 1.000000 0.848312
vt 0.951513 0.951513
vt 0.952702 0.000000
vt 1.000000 0.047294
vt 1.000000 0.962141
vt 0.952702 0.952702
vt 1.000000 0.962173
vt 0.911243 0.911243
vt 1.000000 0.959861
vt 0.037907 0.000000
vt 0.288541 0.623142
vt 0.289023 0.625080
vt 0.291511 0.644969
vt 0.304608 0.750000
vt 0.232522 0.750000
vt 0.214649 0.678707
vt 0.213433 0.673836
vt 0.268324 0.542212
vt 0.408847 0.890512
vt 0.408402 0.892504
vt 0.405689 0.892509
vt 0.375000 0.892478
vt 0.375000 0.820392
vt 0.385978 0.820361
vt 0.388006 0.820363
vt 0.388189 0.820516
vt 0.418674 0.846229
s 0
usemtl Material
f 22/1/1 23/2/1 24/3/1
f 1/4/2 25/5/2 24/6/2 23/7/2 26/8/2
f 30/9/3 29/10/3 28/11/3
f 2/12/4 3/13/4 27/14/4 25/15/4 1/13/4
f 31/16/5 2/13/5 1/4/5 26/17/5
f 5/13/6 4/4/6 2/12/6
f 4/13/7 3/4/7 2/12/7
f 34/18/8 5/4/8 32/19/8
f 33/20/9 4/13/9 6/4/9 35/21/9
f 30/22/10 35/23/10 6/13/10 36/24/10 29/25/10
f 6/13/11 5/4/11 34/26/11 36/27/11
f 6/13/12 4/4/12 5/12/12
f 3/13/13 4/4/13 33/28/13 27/29/13
f 2/4/14 31/30/14 32/31/14 5/13/14
f 19/32/15 20/33/15 14/34/15 12/35/15 7/36/15 9/37/15 10/38/15 17/39/15
f 16/40/16 11/41/16 8/42/16 7/43/16 12/44/16 13/45/16 21/46/16 18/47/16 15/48/16
