# Blender 4.4.0
# www.blender.org
mtllib Untitled9.mtl
o Cube_cell.008
v 1.249353 0.561960 -0.116118
v 0.257646 0.561212 -0.966081
v 1.248946 -0.680129 -0.914094
v 0.596529 -1.042060 -0.704578
v -1.692168 0.515486 1.000000
v -1.704945 0.549538 1.000000
v 0.467440 0.089146 -1.000000
v -1.709219 0.561010 1.000000
v 0.364216 0.366232 -1.000000
v 0.838233 -0.898401 -1.000000
v -1.675922 0.472438 1.000000
v 0.596290 -1.042136 1.000000
v 0.841472 -0.906584 -1.000000
v 0.602306 -1.038808 1.000000
v 1.249128 0.561819 1.000000
v 1.142997 -0.672335 -1.000000
v 1.178156 -0.719314 -1.000000
v 0.859325 -0.896669 -1.000000
v 1.249286 -0.679496 1.000000
v -1.692168 0.515486 1.000000
v -1.704945 0.549538 1.000000
v -1.709219 0.561010 1.000000
v 0.467440 0.089146 -1.000000
v 0.364216 0.366232 -1.000000
v 1.142997 -0.672335 -1.000000
v 0.838233 -0.898401 -1.000000
v 0.596290 -1.042136 1.000000
v -1.675922 0.472438 1.000000
v 0.841472 -0.906584 -1.000000
v 0.602306 -1.038808 1.000000
v 1.249128 0.561819 1.000000
v 1.178156 -0.719314 -1.000000
v 0.859325 -0.896669 -1.000000
v 1.249286 -0.679496 1.000000
vn -0.0004 1.0000 -0.0001
vn -0.6836 -0.2547 -0.6839
vn -0.6835 -0.2565 -0.6834
vn -0.5546 -0.8321 -0.0001
vn -0.6839 -0.2581 -0.6824
vn -0.6776 -0.2682 -0.6848
vn 0.4840 -0.8751 -0.0000
vn 0.5854 0.4381 -0.6822
vn 0.4861 -0.8739 -0.0020
vn 0.5847 0.4384 -0.6826
vn 0.4856 -0.8742 0.0002
vn -0.0000 -0.0000 1.0000
vn -0.0000 -0.0000 -1.0000
vn 1.0000 -0.0001 -0.0000
vt 1.000000 0.000000
vt 1.000000 0.975288
vt 0.042627 0.000000
vt 0.000000 0.000000
vt 0.023722 0.023722
vt 0.024712 0.000000
vt 1.000000 0.403162
vt 0.976089 0.976089
vt 0.144727 0.000000
vt 0.971605 0.000000
vt 1.000000 0.023722
vt 1.000000 0.976089
vt 1.000000 0.028462
vt 1.000000 1.000000
vt 0.028430 0.028430
vt 1.000000 0.028395
vt 0.028462 0.028462
vt 0.144727 0.144727
vt 1.000000 0.011140
vt 0.001621 0.000000
vt 0.975707 0.000000
vt 1.000000 0.028430
vt 1.000000 0.632278
vt 0.946499 0.946499
vt 0.962704 0.000000
vt 0.632278 0.632278
vt 0.946499 0.000000
vt 0.403162 0.403162
vt 0.962704 0.962704
vt 0.974650 0.000000
vt 0.975707 0.975707
vt 0.001621 0.001621
vt 0.456578 0.837732
vt 0.456716 0.837356
vt 0.471688 0.796920
vt 0.523409 0.796930
vt 0.523375 0.981826
vt 0.522897 0.981559
vt 0.521479 0.980761
vt 0.519685 0.979745
vt 0.503714 0.404215
vt 0.515260 0.397763
vt 0.471986 0.446437
vt 0.470029 0.448635
vt 0.462639 0.428708
vt 0.462226 0.427592
vt 0.462567 0.427390
vt 1.000000 0.957373
vt 0.025350 0.000000
s 0
usemtl Material
f 2/1/1 22/2/1 31/3/1 1/4/1
f 21/5/2 22/6/2 2/1/2 24/7/2 23/8/2
f 26/9/3 4/4/3 20/10/3 21/11/3 23/12/3
f 28/13/4 4/14/4 27/15/4
f 20/16/5 4/14/5 28/17/5
f 26/18/6 29/19/6 4/14/6
f 4/14/7 29/20/7 30/21/7 27/22/7
f 3/1/8 32/23/8 25/24/8 1/4/8
f 3/4/9 33/25/9 32/26/9
f 2/14/10 1/4/10 25/27/10 24/28/10
f 33/29/11 3/4/11 34/30/11 30/31/11 29/32/11
f 12/33/12 14/34/12 19/35/12 15/36/12 8/37/12 6/38/12 5/39/12 11/40/12
f 7/41/13 9/42/13 16/43/13 17/44/13 18/45/13 13/46/13 10/47/13
f 3/1/14 1/1/14 31/48/14 34/49/14
