# Blender 4.4.0
# www.blender.org
mtllib Untitled15.mtl
o Cube_cell.014
v -2.000000 3.000000 -1.000000
v -1.477509 1.125895 0.346691
v -0.412838 1.488146 -0.275951
v -1.271671 1.125582 0.243837
v 0.016943 1.348865 -0.836045
v -0.043868 1.125784 -0.983434
v -0.004285 1.245418 -1.000000
v -0.042871 1.125720 -1.000000
v -0.087718 1.125528 -1.000000
v -2.000000 1.126213 -1.000000
v -0.220326 3.000000 -1.000000
v 0.092119 1.545948 -1.000000
v -0.497135 3.000000 -0.612090
v 0.080961 1.598361 -1.000000
v -2.000000 1.125943 0.197259
v -2.000000 1.125962 0.207429
v -2.000000 3.000000 -0.167789
v -1.598998 3.000000 -0.060846
v -0.004285 1.245418 -1.000000
v -0.042871 1.125720 -1.000000
v -0.087718 1.125528 -1.000000
v -2.000000 1.126213 -1.000000
v 0.080961 1.598361 -1.000000
v -0.220326 3.000000 -1.000000
v -0.497135 3.000000 -0.612090
v 0.092119 1.545948 -1.000000
v -2.000000 1.125943 0.197259
v -2.000000 1.125962 0.207429
v -1.598998 3.000000 -0.060846
v -2.000000 3.000000 -0.167789
vn 0.9501 -0.3063 0.0584
vn 0.0043 -1.0000 0.0041
vn 0.4365 0.2182 0.8729
vn 0.9499 -0.3047 0.0693
vn 0.8018 0.1707 0.5728
vn -0.0006 -1.0000 0.0018
vn 0.5899 -0.5512 0.5900
vn -0.0004 -1.0000 -0.0003
vn -0.0000 -0.0000 -1.0000
vn -1.0000 -0.0000 -0.0000
vn 0.8016 0.1721 0.5726
vn -0.0000 1.0000 -0.0000
vn -0.2529 0.1899 0.9487
vt 1.000000 0.000000
vt 1.000000 0.247764
vt 0.750854 0.000000
vt 0.000000 0.000000
vt 1.000000 0.961136
vt 0.247764 0.247764
vt 1.000000 0.968096
vt 0.973808 0.973808
vt 1.000000 1.000000
vt 0.766575 0.766575
vt 1.000000 0.249146
vt 1.000000 0.766575
vt 0.935495 0.935495
vt 1.000000 0.064483
vt 0.912340 0.000000
vt 0.064483 0.064483
vt 0.961492 0.010153
vt 0.961136 0.961136
vt 0.546926 0.250000
vt 0.625000 0.250000
vt 0.625000 0.361230
vt 0.566598 0.380060
vt 0.564414 0.380757
vt 0.551892 0.374732
vt 0.546905 0.372321
vt 0.546897 0.369518
vt 0.546914 0.100343
vt 0.546915 0.099071
vt 0.625000 0.145974
vt 0.031904 0.000000
vt 1.000000 0.935495
vt 0.882247 0.847732
vt 0.763770 0.500000
vt 0.875000 0.500000
vt 0.875000 0.604026
vt 0.849937 0.617394
vt 0.781071 0.548489
vt 0.137659 0.111525
vt 0.087660 0.000000
vt 1.000000 0.973808
s 0
usemtl Material
f 6/1/1 20/2/1 19/3/1
f 6/4/2 4/1/2 21/5/2 20/6/2
f 3/1/3 25/7/3 29/8/3 2/1/3 4/9/3
f 26/10/4 5/4/4 6/1/4 19/11/4
f 3/4/5 5/1/5 26/12/5 14/13/5
f 27/14/6 4/9/6 2/4/6 28/15/6
f 3/4/7 4/1/7 6/9/7 5/4/7
f 4/9/8 27/16/8 22/17/8 21/18/8
f 10/19/9 1/20/9 24/21/9 23/22/9 12/23/9 7/24/9 8/25/9 9/26/9
f 15/27/10 16/28/10 30/29/10 1/20/10 10/19/10
f 25/30/11 3/1/11 14/31/11 11/32/11
f 24/33/12 1/34/12 30/35/12 18/36/12 13/37/12
f 17/38/13 28/39/13 2/1/13 29/40/13
