# Blender 4.4.0
# www.blender.org
mtllib Untitled11.mtl
o Cube_cell.010
v -0.586665 -2.199165 0.392432
v -0.974249 -2.285440 0.650797
v -0.347506 -2.209596 1.000000
v -0.282324 -2.198694 1.000000
v -1.061691 -2.329408 1.000000
v -0.282284 -3.000000 1.000000
v -0.282240 -2.263755 1.000000
v -0.566673 -3.000000 0.430262
v -0.585968 -3.000000 0.391743
v -0.974172 -3.000000 0.650660
v -1.061685 -2.425130 1.000000
v -0.981167 -3.000000 0.678595
v -1.061350 -3.000000 1.000000
v -0.347506 -2.209596 1.000000
v -0.282324 -2.198694 1.000000
v -1.061691 -2.329408 1.000000
v -0.566673 -3.000000 0.430262
v -0.282284 -3.000000 1.000000
v -0.282240 -2.263755 1.000000
v -0.585968 -3.000000 0.391743
v -0.974172 -3.000000 0.650660
v -1.061685 -2.425130 1.000000
v -0.981167 -3.000000 0.678595
v -1.061350 -3.000000 1.000000
vn -0.1644 0.9830 0.0816
vn -0.1649 0.9829 0.0825
vn 0.8947 -0.0001 -0.4466
vn 0.8941 0.0012 -0.4479
vn -0.0000 -0.0000 1.0000
vn -0.9700 -0.0001 -0.2429
vn -0.9703 -0.0006 -0.2421
vn -0.0000 -1.0000 -0.0000
vn -0.5548 0.0002 -0.8320
vt 0.923433 0.923433
vt 0.000000 0.000000
vt 1.000000 0.000000
vt 1.000000 0.873925
vt 0.873925 0.873925
vt 0.874756 0.000000
vt 0.134959 0.059018
vt 1.000000 0.058545
vt 1.000000 0.923518
vt 0.058580 0.000000
vt 1.000000 0.923433
vt 0.923518 0.923518
vt 0.058545 0.058545
vt 0.408388 0.892645
vt 0.407933 0.896719
vt 0.402941 0.941356
vt 0.398953 0.941355
vt 0.375000 0.941334
vt 0.375000 0.892643
vt 0.405677 0.892640
vt 1.000000 0.125244
vt 1.000000 1.000000
vt 0.065375 0.065375
vt 0.069975 0.000000
vt 0.874802 0.000000
vt 0.875680 0.070494
vt 0.874802 0.874802
vt 0.069975 0.069975
vt 0.188677 0.709824
vt 0.189114 0.706333
vt 0.213377 0.673968
vt 0.214583 0.678783
vt 0.232357 0.750000
vt 0.183666 0.750000
vt 0.058580 0.058580
vt 1.000000 0.065375
s 0
usemtl Material
f 15/1/1 1/2/1 2/3/1 14/4/1
f 14/5/2 2/2/2 16/6/2
f 18/7/3 17/8/3 19/9/3
f 20/10/4 1/3/4 15/11/4 19/12/4 17/13/4
f 4/14/5 3/15/5 5/16/5 22/17/5 24/18/5 6/19/5 7/20/5
f 16/21/6 2/22/6 21/23/6 23/24/6 11/25/6
f 13/26/7 11/27/7 23/28/7
f 12/29/8 10/30/8 9/31/8 8/32/8 6/33/8 24/34/8
f 20/35/9 21/36/9 2/3/9 1/22/9
