# Blender 4.4.0
# www.blender.org
mtllib Untitled19.mtl
o Cube_cell.018
v 2.000000 3.000000 -1.000000
v 1.250103 0.562445 -0.117239
v 1.577962 1.874419 0.726458
v 1.250726 -0.679771 -0.916117
v 1.155641 1.874771 0.364309
v 0.019134 1.348479 -0.835650
v 0.257561 0.562564 -0.968374
v -0.042694 1.125256 -0.984652
v 2.000000 -0.778815 -1.000000
v 2.000000 -0.762900 -0.969667
v 1.752148 -0.760612 -1.000000
v 1.180801 -0.718087 -1.000000
v 1.145373 -0.671459 -1.000000
v 0.093844 1.545055 -1.000000
v -0.005424 1.237476 -1.000000
v -0.041578 1.125228 -1.000000
v 1.341341 3.000000 -1.000000
v 1.965873 3.000000 0.094423
v 2.000000 2.984203 0.137408
v 2.000000 3.000000 0.123821
v 2.000000 2.115539 0.881407
v 0.358532 0.378520 -1.000000
v 0.089382 0.880884 -1.000000
v 2.000000 -0.778815 -1.000000
v 2.000000 -0.762900 -0.969667
v 1.752148 -0.760612 -1.000000
v 1.180801 -0.718087 -1.000000
v 1.145373 -0.671459 -1.000000
v 0.093844 1.545055 -1.000000
v 1.341341 3.000000 -1.000000
v -0.005424 1.237476 -1.000000
v -0.041578 1.125228 -1.000000
v 1.965873 3.000000 0.094423
v 2.000000 3.000000 0.123821
v 2.000000 2.984203 0.137408
v 2.000000 2.115539 0.881407
v 0.358532 0.378520 -1.000000
v 0.089382 0.880884 -1.000000
vn -0.0649 -0.8836 0.4636
vn -0.0659 -0.8857 0.4595
vn -0.5801 -0.4408 0.6849
vn -0.0000 -0.0000 -1.0000
vn -0.9495 0.3058 -0.0696
vn -0.9496 0.3065 -0.0651
vn -0.5468 0.5460 0.6348
vn -0.0000 1.0000 -0.0000
vn -0.5851 -0.4384 0.6823
vn -0.8795 -0.4712 -0.0658
vn -0.8796 -0.4715 -0.0631
vn -0.6193 -0.3086 0.7219
vn -0.6196 -0.3098 0.7212
vn 0.0001 -0.5409 0.8411
vn -0.6966 0.5972 0.3977
vn 1.0000 -0.0000 -0.0000
vn -0.5454 0.5453 0.6366
vn -0.6190 -0.3096 0.7218
vt 0.062097 0.000000
vt 1.000000 0.000000
vt 1.000000 0.627078
vt 0.458354 0.395892
vt 0.627078 0.627078
vt 0.000000 0.000000
vt 0.628639 0.000000
vt 1.000000 0.371360
vt 1.000000 1.000000
vt 0.946850 0.000000
vt 0.536703 0.380586
vt 0.546885 0.372401
vt 0.551561 0.374661
vt 0.564377 0.380865
vt 0.625000 0.458834
vt 0.625000 0.500000
vt 0.467549 0.500000
vt 0.468308 0.484509
vt 0.470080 0.448800
vt 0.472023 0.446586
vt 0.515772 0.397408
vt 1.000000 0.233812
vt 0.764219 0.000000
vt 1.000000 0.765682
vt 0.233813 0.233813
vt 0.750506 0.707851
vt 0.042318 0.000000
vt 1.000000 0.943788
vt 0.666166 0.500000
vt 0.627133 0.636803
vt 0.625000 0.640478
vt 0.388746 0.000000
vt 0.946850 0.946850
vt 0.388746 0.388746
vt 1.000000 0.235853
vt 0.235782 0.000000
vt 0.235853 0.235853
vt 1.000000 0.937903
vt 0.893472 0.893472
vt 0.970690 0.931877
vt 0.765681 0.765681
vt 0.957682 0.000000
vt 0.468213 0.503792
vt 0.624342 0.642176
vt 0.588147 0.735176
vt 0.893472 0.000000
vt 0.943788 0.943788
s 0
usemtl Material
f 25/1/1 4/2/1 26/3/1 24/4/1
f 26/5/2 4/6/2 27/7/2
f 27/8/3 4/9/3 2/6/3 28/10/3
f 23/11/4 16/12/4 15/13/4 14/14/4 30/15/4 1/16/4 9/17/4 11/18/4 12/19/4 13/20/4 22/21/4
f 8/2/5 31/22/5 32/23/5
f 6/2/6 29/24/6 31/25/6 8/6/6
f 34/26/7 18/27/7 5/2/7 35/28/7
f 1/16/8 30/29/8 33/30/8 20/31/8
f 2/9/9 7/6/9 37/32/9 28/33/9
f 37/34/10 7/6/10 8/2/10 38/35/10
f 8/6/11 32/36/11 38/37/11
f 3/6/12 5/2/12 6/9/12
f 8/6/13 7/2/13 6/9/13
f 25/38/14 36/39/14 3/6/14 2/6/14 4/2/14
f 17/40/15 29/41/15 6/9/15 5/6/15 18/42/15
f 10/43/16 9/17/16 1/16/16 20/31/16 19/44/16 21/45/16
f 3/6/17 36/46/17 35/47/17 5/6/17
f 6/6/18 7/2/18 2/9/18 3/6/18
