# Blender 4.4.0
# www.blender.org
mtllib Untitled1.mtl
o Cube_cell
v 2.000000 3.000000 1.000000
v -0.143470 1.875562 0.799366
v 1.154999 1.875523 0.365512
v 1.577477 1.875748 0.727929
v -0.142012 1.875519 1.000000
v -0.224098 1.875527 1.000000
v 1.578083 1.876015 1.000000
v -0.224267 3.000000 1.000000
v -0.143652 3.000000 0.798983
v -0.088892 3.000000 0.780686
v 1.964066 3.000000 0.096326
v 2.000000 3.000000 0.127094
v 2.000000 2.130854 0.871467
v 2.000000 2.117291 0.883116
v 2.000000 2.117281 0.917424
v 1.737375 1.967094 1.000000
v 2.000000 2.117503 1.000000
v -0.142012 1.875519 1.000000
v -0.224098 1.875527 1.000000
v 1.578083 1.876015 1.000000
v -0.224267 3.000000 1.000000
v -0.143652 3.000000 0.798983
v -0.088892 3.000000 0.780686
v 1.964066 3.000000 0.096326
v 2.000000 3.000000 0.127094
v 2.000000 2.130854 0.871467
v 2.000000 2.117291 0.883116
v 2.000000 2.117281 0.917424
v 1.737375 1.967094 1.000000
v 2.000000 2.117503 1.000000
vn -0.0001 -1.0000 -0.0002
vn 0.5457 -0.5451 -0.6365
vn -0.3169 -0.0004 -0.9485
vn -0.3162 0.0004 -0.9487
vn -0.9280 -0.0002 -0.3726
vn 0.5456 -0.5460 -0.6357
vn 0.4964 -0.8681 -0.0003
vn 0.4970 -0.8678 0.0023
vn -0.0000 1.0000 -0.0000
vn -0.0000 -0.0000 1.0000
vn 0.0002 -1.0000 0.0006
vn 1.0000 -0.0000 -0.0000
vt 1.000000 0.926977
vt 0.800564 0.800564
vt 0.000000 0.000000
vt 1.000000 0.000000
vt 0.763981 0.042876
vt 1.000000 0.056210
vt 1.000000 1.000000
vt 0.042670 0.042670
vt 0.042172 0.000000
vt 0.042174 0.042174
vt 1.000000 0.042670
vt 0.042172 0.042172
vt 0.198958 0.042186
vt 1.000000 0.042174
vt 1.000000 0.800564
vt 0.056210 0.056210
vt 0.106432 0.000000
vt 0.106432 0.106432
vt 0.106594 0.000000
vt 0.662849 0.000000
vt 1.000000 0.155377
vt 0.662849 0.662849
vt 0.106594 0.106594
vt 0.664914 0.105694
vt 0.755556 0.722586
vt 0.758978 0.724873
vt 0.764017 0.750000
vt 0.625000 0.750000
vt 0.625000 0.640887
vt 0.627246 0.637041
vt 0.625000 0.889017
vt 0.578147 0.889006
vt 0.578147 0.883876
vt 0.578167 0.776370
vt 0.581962 0.766414
vt 0.588229 0.750000
vt 0.844623 0.000000
vt 0.926977 0.926977
vt 0.588229 0.750000
vt 0.588220 0.739678
vt 0.588220 0.735390
vt 0.588786 0.733933
s 0
usemtl Material
f 18/1/1 19/2/1 2/3/1 3/4/1
f 25/5/2 26/6/2 3/7/2 24/8/2
f 23/9/3 3/4/3 2/7/3 22/10/3
f 24/11/4 3/7/4 23/12/4
f 21/13/5 22/14/5 2/4/5 19/15/5
f 4/4/6 3/7/6 26/16/6 27/17/6
f 4/7/7 27/18/7 28/19/7 29/20/7 20/21/7
f 29/22/8 28/23/8 30/24/8
f 10/25/9 9/26/9 8/27/9 1/28/9 12/29/9 11/30/9
f 8/31/10 6/32/10 5/33/10 7/34/10 16/35/10 17/36/10 1/28/10
f 4/3/11 20/37/11 18/38/11 3/3/11
f 1/28/12 17/39/12 15/40/12 14/41/12 13/42/12 12/29/12
