# Blender 4.4.0
# www.blender.org
mtllib Untitled20.mtl
o Cube_cell.019
v -0.585874 -2.197080 0.391107
v -0.975267 -2.283851 0.649852
v -0.089274 -1.931560 -0.205097
v 0.420128 -1.727991 -0.408478
v 0.492521 -1.728212 -0.262474
v -1.374549 -1.983216 0.250018
v -1.290939 -1.900035 0.082804
v 0.594586 -1.049672 -0.706516
v 0.543530 -1.391128 -0.566699
v 0.595229 -1.044090 -0.703490
v 0.595912 -1.044576 1.000000
v 0.461044 -1.941473 1.000000
v -2.000000 -1.592013 0.144964
v -2.000000 -1.402100 0.074042
v -2.000000 -1.395678 0.071653
v 0.459719 -1.950187 1.000000
v -1.676799 0.471185 1.000000
v -2.000000 -1.091502 0.242654
v -1.758474 0.416720 1.000000
v -2.000000 0.254536 1.000000
v -1.062573 -2.326891 1.000000
v -0.346286 -2.208155 1.000000
v -0.281360 -2.197308 1.000000
v -2.000000 -1.600877 0.156822
v -2.000000 -1.670591 0.250430
v -2.000000 -1.675336 0.269214
v -2.000000 -1.858000 1.000000
v -1.914945 -1.900611 1.000000
v 0.461044 -1.941473 1.000000
v 0.595912 -1.044576 1.000000
v -2.000000 -1.592013 0.144964
v -2.000000 -1.402100 0.074042
v -2.000000 -1.395678 0.071653
v 0.459719 -1.950187 1.000000
v -1.676799 0.471185 1.000000
v -1.758474 0.416720 1.000000
v -2.000000 -1.091502 0.242654
v -2.000000 0.254536 1.000000
v -1.062573 -2.326891 1.000000
v -0.346286 -2.208155 1.000000
v -0.281360 -2.197308 1.000000
v -2.000000 -1.600877 0.156822
v -2.000000 -1.670591 0.250430
v -2.000000 -1.675336 0.269214
v -2.000000 -1.858000 1.000000
v -1.914945 -1.900611 1.000000
vn 0.3125 -0.9369 -0.1566
vn 0.9935 -0.1142 -0.0004
vn 0.5549 0.8319 -0.0000
vn -0.2258 -0.3452 -0.9110
vn -0.2273 -0.3435 -0.9112
vn -0.2284 -0.3395 -0.9125
vn 0.9886 -0.1503 -0.0007
vn 0.7890 -0.4731 -0.3919
vn -0.2973 0.4813 -0.8246
vn -0.3106 0.4658 -0.8286
vn -0.3128 0.4658 -0.8278
vn 0.1630 -0.9834 -0.0802
vn 0.1642 -0.9830 -0.0825
vn -0.2282 -0.3410 -0.9119
vn 0.3114 -0.9371 -0.1579
vn -0.1401 -0.8559 -0.4979
vn -0.1421 -0.8546 -0.4994
vn -0.1452 -0.8550 -0.4979
vn -0.3717 -0.7436 -0.5558
vn -0.3724 -0.7443 -0.5543
vn -0.4362 -0.8724 -0.2204
vn -0.4371 -0.8726 -0.2181
vn -0.4367 -0.8732 -0.2162
vn -0.0000 -0.0000 1.0000
vn -1.0000 -0.0000 -0.0000
vn 0.9889 -0.1485 -0.0002
vt 1.000000 0.962152
vt 0.923991 0.923991
vt 0.000000 0.000000
vt 1.000000 0.000000
vt 0.971773 0.971773
vt 0.971725 0.971725
vt 0.971761 0.000000
vt 1.000000 1.000000
vt 0.018822 0.000000
vt 0.019193 0.019193
vt 0.030725 0.030725
vt 0.037848 0.000000
vt 0.028239 0.000000
vt 0.948592 0.000000
vt 1.000000 0.028190
vt 0.018823 0.018823
vt 0.162083 0.000000
vt 0.947838 0.162482
vt 0.948592 0.948592
vt 0.162083 0.162083
vt 0.124430 0.000000
vt 1.000000 0.874853
vt 1.000000 0.923991
vt 0.874853 0.874853
vt 0.933998 0.000000
vt 1.000000 0.019193
vt 1.000000 0.066002
vt 0.925830 0.000000
vt 0.925318 0.000000
vt 0.925830 0.925830
vt 1.000000 0.953051
vt 0.925318 0.925318
vt 0.953214 0.039615
vt 0.953051 0.953051
vt 0.874101 0.000000
vt 0.874102 0.874102
vt 0.875570 0.000000
vt 0.407994 0.896643
vt 0.408445 0.892585
vt 0.418742 0.846268
vt 0.419105 0.846185
vt 0.456483 0.837754
vt 0.519633 0.979800
vt 0.517363 0.984905
vt 0.510606 1.000000
vt 0.422583 1.000000
vt 0.420808 0.994684
vt 0.403046 0.941411
vt 0.422583 0.000000
vt 0.510606 0.000000
vt 0.454521 0.094668
vt 0.441847 0.116043
vt 0.441579 0.115745
vt 0.433666 0.106880
vt 0.433297 0.105397
vt 0.430392 0.093696
vt 0.430194 0.091348
vt 1.000000 0.971773
vt 0.030725 0.000000
s 0
usemtl Material
f 34/1/1 41/2/1 1/3/1 4/3/1 5/4/1
f 8/3/2 10/4/2 30/5/2
f 30/6/3 10/3/3 35/7/3
f 4/3/4 3/4/4 9/8/4
f 3/3/5 7/4/5 9/8/5
f 33/9/6 8/4/6 9/8/6 32/10/6
f 5/4/7 9/8/7 12/11/7 34/12/7
f 5/3/8 4/4/8 9/8/8
f 10/4/9 8/8/9 35/13/9
f 36/14/10 35/15/10 8/8/10 33/16/10 37/17/10
f 38/18/11 36/19/11 37/20/11
f 39/21/12 2/4/12 40/22/12
f 1/4/13 41/23/13 40/24/13 2/3/13
f 31/25/14 32/26/14 9/8/14 7/3/14
f 1/3/15 3/4/15 4/8/15
f 1/3/16 2/4/16 3/8/16
f 2/3/17 7/4/17 3/8/17
f 2/3/18 6/4/18 7/8/18
f 31/27/19 7/8/19 6/3/19 42/28/19
f 6/3/20 43/29/20 42/30/20
f 6/3/21 2/4/21 44/31/21 43/32/21
f 45/33/22 44/34/22 2/3/22 46/35/22
f 46/36/23 2/3/23 39/37/23
f 22/38/24 23/39/24 16/40/24 29/41/24 11/42/24 17/43/24 19/44/24 20/45/24 27/46/24 28/47/24 21/48/24
f 27/49/25 20/50/25 18/51/25 15/52/25 14/53/25 13/54/25 24/55/25 25/56/25 26/57/25
f 30/58/26 12/59/26 9/3/26 8/4/26
