# Blender 4.4.0
# www.blender.org
mtllib Untitled4.mtl
o Cube_cell.003
v -2.000000 -3.000000 -1.000000
v -1.375594 -1.984344 0.249325
v -1.292240 -1.901160 0.082200
v -2.000000 -1.593748 0.143785
v -2.000000 -1.602591 0.155627
v -2.000000 -1.672619 0.248618
v -2.000000 -2.971025 0.249053
v -2.000000 -3.000000 0.249035
v -1.375449 -3.000000 0.248693
v -0.885296 -3.000000 -0.731188
v -0.879953 -3.000000 -0.741892
v -2.000000 -2.927867 -1.000000
v -1.828709 -2.984951 -1.000000
v -1.603819 -3.000000 -0.948661
v -1.783689 -3.000000 -1.000000
v -2.000000 -1.593748 0.143785
v -2.000000 -1.602591 0.155627
v -2.000000 -1.672619 0.248618
v -2.000000 -2.971025 0.249053
v -2.000000 -3.000000 0.249035
v -1.375449 -3.000000 0.248693
v -0.885296 -3.000000 -0.731188
v -0.879953 -3.000000 -0.741892
v -1.603819 -3.000000 -0.948661
v -2.000000 -2.927867 -1.000000
v -1.828709 -2.984951 -1.000000
v -1.783689 -3.000000 -1.000000
vn 0.3715 0.7439 0.5555
vn 0.3699 0.7422 0.5589
vn -0.0010 0.0003 1.0000
vn 0.0005 -0.0006 1.0000
vn 0.8943 -0.0002 0.4474
vn 0.8947 0.0008 0.4466
vn 0.2121 0.6346 -0.7432
vn -0.0000 -1.0000 -0.0000
vn -0.0000 -0.0000 -1.0000
vn -1.0000 -0.0000 -0.0000
vn 0.2119 0.6361 -0.7420
vt 1.000000 1.000000
vt 0.000000 0.000000
vt 0.934077 0.000000
vt 1.000000 0.074071
vt 0.074071 0.074071
vt 1.000000 0.074649
vt 0.074649 0.074649
vt 1.000000 0.074169
vt 1.000000 0.046488
vt 0.074169 0.074169
vt 0.074163 0.046967
vt 1.000000 0.046640
vt 0.046488 0.046488
vt 0.046640 0.046640
vt 0.043262 0.000000
vt 1.000000 0.000000
vt 1.000000 0.186109
vt 1.000000 0.375314
vt 0.811279 0.186063
vt 0.125000 0.656129
vt 0.125000 0.500000
vt 0.138519 0.500000
vt 0.149761 0.506417
vt 0.195003 0.532264
vt 0.194669 0.533602
vt 0.164034 0.656087
vt 0.375627 0.260706
vt 0.375000 0.263519
vt 0.375000 0.250000
vt 0.378006 0.250000
vt 0.375000 0.093871
vt 0.376207 0.093868
vt 0.430308 0.093923
vt 0.433225 0.105547
vt 0.433594 0.107027
vt 0.983973 0.040744
vt 1.000000 0.065923
vt 0.043262 0.043262
vt 0.624686 0.000000
vt 0.813890 0.000000
s 0
usemtl Material
f 2/1/1 3/2/1 16/3/1 17/4/1
f 2/1/2 17/5/2 18/6/2
f 18/7/3 19/8/3 2/1/3
f 21/9/4 2/1/4 19/10/4 20/11/4
f 22/12/5 2/1/5 21/13/5
f 22/14/6 23/15/6 3/16/6 2/1/6
f 26/17/7 14/18/7 27/19/7
f 8/20/8 1/21/8 15/22/8 24/23/8 11/24/8 10/25/8 9/26/8
f 13/27/9 15/28/9 1/29/9 25/30/9
f 25/30/10 1/29/10 8/31/10 7/32/10 6/33/10 5/34/10 4/35/10
f 12/36/11 16/37/11 3/1/11 23/38/11 14/39/11 26/40/11
