# Blender 4.4.0
# www.blender.org
mtllib Untitled17.mtl
o Cube_cell.016
v -1.373728 -1.985834 0.249565
v -1.290014 -1.902010 0.082371
v -0.974814 -2.285038 0.648418
v -0.586545 -2.198814 0.389479
v -0.090506 -1.933452 -0.205951
v 0.292211 -2.495250 -0.663994
v -1.347946 -3.000000 0.276198
v -0.974435 -3.000000 0.648246
v -1.374148 -3.000000 0.250017
v -0.877921 -3.000000 -0.740882
v -0.586793 -3.000000 0.389951
v 0.227497 -3.000000 -0.986924
v 0.247017 -3.000000 -0.991157
v 0.292075 -3.000000 -0.664242
v -0.974435 -3.000000 0.648246
v -1.347946 -3.000000 0.276198
v -1.374148 -3.000000 0.250017
v -0.877921 -3.000000 -0.740882
v -0.586793 -3.000000 0.389951
v 0.227497 -3.000000 -0.986924
v 0.247017 -3.000000 -0.991157
v 0.292075 -3.000000 -0.664242
vn -0.7057 -0.0005 0.7085
vn -0.7068 0.0006 0.7074
vn 0.1443 0.8535 0.5006
vn -0.1775 0.5464 -0.8185
vn 0.9906 -0.0002 -0.1365
vn 0.1423 0.8548 0.4991
vn 0.7681 0.0011 0.6404
vn 0.7680 -0.0001 0.6405
vn -0.8942 0.0001 -0.4478
vn 0.5547 0.0002 0.8321
vn -0.1823 0.5450 -0.8184
vn -0.0000 -1.0000 -0.0000
vt 0.065743 0.000000
vt 1.000000 0.000000
vt 1.000000 0.934337
vt 0.934337 0.934337
vt 0.000000 0.000000
vt 1.000000 0.952795
vt 1.000000 1.000000
vt 1.000000 0.909298
vt 0.954921 0.954921
vt 0.909298 0.909298
vt 0.909878 0.000000
vt 1.000000 0.941537
vt 0.090122 0.000000
vt 0.956351 0.000000
vt 0.952795 0.952795
vt 0.058463 0.000000
vt 1.000000 0.934257
vt 0.954921 0.000000
vt 1.000000 0.043649
vt 0.195130 0.532390
vt 0.264219 0.501635
vt 0.265439 0.501105
vt 0.268255 0.541970
vt 0.213325 0.673744
vt 0.189098 0.706031
vt 0.165753 0.659525
vt 0.164116 0.656252
s 0
usemtl Material
f 15/1/1 3/2/1 16/3/1
f 16/4/2 3/5/2 1/2/2 17/6/2
f 4/5/3 5/2/3 3/7/3
f 5/5/4 6/2/4 21/8/4 20/9/4
f 21/10/5 6/5/5 22/11/5
f 2/5/6 1/2/6 3/7/6 5/5/6
f 6/5/7 5/2/7 4/7/7
f 6/5/8 4/2/8 19/12/8 22/13/8
f 2/5/9 18/14/9 17/15/9 1/5/9
f 19/16/10 4/2/10 3/2/10 15/17/10
f 5/5/11 20/18/11 18/19/11 2/7/11
f 10/20/12 12/21/12 13/22/12 14/23/12 11/24/12 8/25/12 7/26/12 9/27/12
