# Blender 4.4.0
# www.blender.org
mtllib Untitled12.mtl
o Cube_cell.011
v -2.000000 -3.000000 1.000000
v -1.375148 -1.985506 0.250593
v -0.976459 -2.284740 0.650610
v -1.063349 -2.425176 1.000000
v -1.063350 -2.328834 1.000000
v -0.983455 -3.000000 0.678784
v -0.976478 -3.000000 0.650729
v -0.995273 -3.000000 0.631874
v -2.000000 -1.677804 0.269741
v -2.000000 -1.673184 0.251235
v -2.000000 -1.860767 1.000000
v -1.063648 -3.000000 1.000000
v -1.375787 -3.000000 0.250971
v -2.000000 -2.970591 0.250540
v -2.000000 -3.000000 0.250551
v -0.983455 -3.000000 0.678784
v -0.976478 -3.000000 0.650729
v -1.063349 -2.425176 1.000000
v -1.063350 -2.328834 1.000000
v -0.995273 -3.000000 0.631874
v -2.000000 -1.677804 0.269741
v -2.000000 -1.673184 0.251235
v -2.000000 -1.860767 1.000000
v -1.063648 -3.000000 1.000000
v -1.375787 -3.000000 0.250971
v -2.000000 -2.970591 0.250540
v -2.000000 -3.000000 0.250551
vn 0.9704 -0.0000 0.2413
vn 0.7082 -0.0001 -0.7060
vn 0.9702 -0.0005 0.2422
vn 0.7075 -0.0007 -0.7067
vn 0.0007 -0.0004 -1.0000
vn -0.0008 0.0005 -1.0000
vn 0.4363 0.8729 0.2185
vn -1.0000 -0.0000 -0.0000
vn -0.0000 -1.0000 -0.0000
vn -0.0000 -0.0000 1.0000
vt 1.000000 0.065569
vt 1.000000 1.000000
vt 0.125825 0.125825
vt 0.125866 0.000000
vt 0.929805 0.000000
vt 0.065569 0.065569
vt 0.047141 0.000000
vt 1.000000 0.000000
vt 0.194553 0.069751
vt 1.000000 0.070195
vt 1.000000 0.874134
vt 0.046847 0.000000
vt 1.000000 0.952859
vt 0.972341 0.047128
vt 1.000000 0.074759
vt 0.046847 0.046847
vt 1.000000 0.073536
vt 0.074759 0.074759
vt 1.000000 0.125825
vt 0.000000 0.000000
vt 0.926464 0.000000
vt 0.046216 0.046216
vt 0.960146 0.046499
vt 0.422468 0.000000
vt 0.430092 0.091282
vt 0.430284 0.093596
vt 0.376225 0.093683
vt 0.375000 0.093681
vt 0.375000 0.000000
vt 0.183522 0.750000
vt 0.125000 0.750000
vt 0.125000 0.656319
vt 0.164013 0.656371
vt 0.187795 0.703984
vt 0.188970 0.706341
vt 0.188534 0.709848
vt 0.402965 0.941459
vt 0.422468 1.000000
vt 0.375000 1.000000
vt 0.375000 0.941478
vt 0.398951 0.941459
s 0
usemtl Material
f 17/1/1 3/2/1 19/3/1 18/4/1 16/5/1
f 3/2/2 17/6/2 20/7/2 2/8/2
f 24/9/3 16/10/3 18/11/3
f 25/12/4 2/8/4 20/13/4
f 27/14/5 26/15/5 2/2/5 25/16/5
f 22/17/6 2/2/6 26/18/6
f 19/19/7 3/2/7 2/20/7 22/21/7 21/22/7 23/23/7
f 11/24/8 9/25/8 10/26/8 14/27/8 15/28/8 1/29/8
f 12/30/9 1/31/9 15/32/9 13/33/9 8/34/9 7/35/9 6/36/9
f 5/37/10 11/38/10 1/39/10 12/40/10 4/41/10
