# Blender 4.4.0
# www.blender.org
mtllib Untitled14.mtl
o Cube_cell.013
v -1.291392 -1.900675 0.081634
v -0.089063 -1.932972 -0.207504
v 0.292731 -2.491366 -0.664894
v 0.594692 -1.050782 -0.709244
v 0.712259 -1.034877 -0.887680
v 0.418997 -1.729800 -0.410798
v 0.544176 -1.388304 -0.569831
v -1.777526 -3.000000 -1.000000
v -0.879100 -3.000000 -0.743081
v -2.000000 -1.592263 0.143296
v -2.000000 -2.925675 -1.000000
v 0.228146 -3.000000 -0.989042
v -2.000000 -1.560651 0.131438
v 0.741067 -1.031331 -1.000000
v 0.249090 -3.000000 -1.000000
v 0.247438 -3.000000 -0.993369
v -2.000000 -1.397282 0.067227
v -2.000000 -1.397258 -1.000000
v -1.195006 -1.289703 -1.000000
v -1.777526 -3.000000 -1.000000
v -0.879100 -3.000000 -0.743081
v -2.000000 -1.560651 0.131438
v -2.000000 -1.397282 0.067227
v -2.000000 -2.925675 -1.000000
v -2.000000 -1.592263 0.143296
v 0.228146 -3.000000 -0.989042
v 0.249090 -3.000000 -1.000000
v 0.741067 -1.031331 -1.000000
v 0.247438 -3.000000 -0.993369
v -2.000000 -1.397258 -1.000000
v -1.195006 -1.289703 -1.000000
vn 0.2281 0.3421 0.9116
vn 0.9430 -0.2357 0.2348
vn -1.0000 -0.0000 -0.0000
vn 0.2238 0.3565 0.9071
vn 0.1835 -0.5448 0.8183
vn 0.4650 -0.3486 0.8138
vn 0.8261 0.1051 0.5537
vn -0.1319 0.9913 0.0014
vn -0.1324 0.9912 -0.0000
vn -0.1323 0.9912 -0.0026
vn -0.2122 -0.6361 0.7419
vn -0.0000 -0.0000 -1.0000
vn 0.9426 -0.2353 0.2368
vn 0.1819 -0.5454 0.8182
vn -0.0000 -1.0000 -0.0000
vn 0.2285 0.3410 0.9119
vt 0.000000 0.000000
vt 1.000000 0.000000
vt 1.000000 0.981080
vt 1.000000 0.065959
vt 1.000000 1.000000
vt 0.994300 0.925459
vt 0.309108 0.000000
vt 1.000000 0.910597
vt 0.441781 0.250000
vt 0.378097 0.250000
vt 0.433656 0.107088
vt 0.434973 0.108570
vt 0.441780 0.116597
vt 0.981014 0.000000
vt 0.981080 0.981080
vt 0.910598 0.910598
vt 1.000000 0.955292
vt 0.981015 0.981015
vt 0.981922 0.041758
vt 0.981823 0.981823
vt 0.690492 0.000000
vt 0.690492 0.690492
vt 0.690892 0.000000
vt 0.934041 0.000000
vt 0.958140 0.200604
vt 0.998205 0.954415
vt 0.043586 0.000000
vt 0.375000 0.390568
vt 0.375000 0.263905
vt 0.446262 0.300312
vt 0.457028 0.421317
vt 0.044708 0.000000
vt 1.000000 0.956414
vt 0.138905 0.500000
vt 0.265568 0.500000
vt 0.265465 0.500829
vt 0.264259 0.501370
vt 0.195056 0.532115
s 0
usemtl Material
f 7/1/1 4/2/1 13/3/1 25/4/1 1/5/1
f 27/6/2 28/7/2 5/1/2 3/2/2 29/8/2
f 30/9/3 11/10/3 10/11/3 22/12/3 23/13/3
f 4/1/4 17/14/4 13/15/4
f 29/16/5 3/1/5 2/2/5 26/17/5
f 3/1/6 6/2/6 2/5/6
f 5/1/7 4/2/7 7/5/7
f 4/1/8 5/2/8 17/18/8
f 18/19/9 17/20/9 5/1/9 31/21/9
f 31/22/10 5/1/10 28/23/10
f 1/1/11 25/24/11 24/25/11 20/26/11 21/27/11
f 15/28/12 8/29/12 11/10/12 30/9/12 19/30/12 14/31/12
f 6/1/13 3/2/13 5/2/13 7/5/13
f 26/32/14 2/2/14 1/2/14 21/33/14
f 8/34/15 15/35/15 16/36/15 12/37/15 9/38/15
f 6/1/16 7/2/16 1/5/16 2/5/16
