# Blender 4.4.0
# www.blender.org
mtllib Untitled10.mtl
o Cube_cell.009
v -0.143661 1.875930 0.796616
v 1.153543 1.876018 0.364786
v -0.411914 1.488479 -0.274877
v 0.018350 1.350142 -0.834315
v -0.217531 3.000000 -1.000000
v -0.495412 3.000000 -0.611389
v 0.082044 1.600892 -1.000000
v -0.143818 3.000000 0.796583
v 1.941088 3.000000 0.055766
v 1.337375 3.000000 -1.000000
v 0.093468 1.548603 -1.000000
v 1.963452 3.000000 0.094959
v -0.217531 3.000000 -1.000000
v -0.495412 3.000000 -0.611389
v -0.143818 3.000000 0.796583
v 0.082044 1.600892 -1.000000
v 1.963452 3.000000 0.094959
v 1.941088 3.000000 0.055766
v 1.337375 3.000000 -1.000000
v 0.093468 1.548603 -1.000000
vn 0.1050 -0.9434 0.3146
vn 0.6965 -0.5968 -0.3984
vn -0.8009 -0.1750 -0.5727
vn -0.9702 0.0002 0.2425
vn 0.6966 -0.5973 -0.3975
vn -0.0000 1.0000 -0.0000
vn -0.8015 -0.1717 -0.5728
vn 0.3159 0.0001 0.9488
vn -0.0000 -0.0000 -1.0000
vt 0.000000 0.000000
vt 1.000000 0.000000
vt 1.000000 1.000000
vt 0.961516 0.931865
vt 0.029573 0.000000
vt 0.767671 0.000000
vt 0.767672 0.767672
vt 1.000000 0.935322
vt 1.000000 0.957495
vt 0.968127 0.968127
vt 0.957184 0.957184
vt 1.000000 0.970427
vt 0.666414 0.500000
vt 0.763596 0.500000
vt 0.780963 0.548576
vt 0.758989 0.724573
vt 0.627284 0.636870
vt 0.628682 0.631971
vt 0.064678 0.000000
vt 1.000000 0.968127
vt 0.965188 0.847636
vt 0.957184 0.000000
vt 0.957495 0.957495
vt 0.625000 0.361404
vt 0.625000 0.458586
vt 0.564525 0.380842
vt 0.566704 0.380128
s 0
usemtl Material
f 2/1/1 1/2/1 3/3/1 4/1/1
f 19/4/2 18/5/2 4/1/2 20/6/2
f 20/7/3 4/1/3 3/2/3 16/8/3
f 3/1/4 1/2/4 15/9/4 6/10/4
f 12/11/5 2/1/5 4/2/5 18/12/5
f 10/13/6 13/14/6 14/15/6 8/16/6 17/17/6 9/18/6
f 16/19/7 3/2/7 6/20/7 5/21/7
f 1/3/8 2/1/8 12/22/8 15/23/8
f 13/24/9 10/25/9 11/26/9 7/27/9
