# Blender 4.4.0
# www.blender.org
mtllib Untitled18.mtl
o Cube_cell.017
v 2.000000 -3.000000 1.000000
v 0.626013 -2.022949 0.000753
v 0.875420 -3.000000 0.999278
v 0.626523 -3.000000 0.001328
v 0.876364 -2.689251 1.000000
v 2.000000 -2.023020 0.001323
v 2.000000 -3.000000 0.001215
v 2.000000 -2.689211 1.000000
v 0.875420 -3.000000 0.999278
v 0.626523 -3.000000 0.001328
v 0.876364 -2.689251 1.000000
v 2.000000 -3.000000 0.001215
v 2.000000 -2.023020 0.001323
v 2.000000 -2.689211 1.000000
vn -0.9703 -0.0004 0.2420
vn -0.9696 0.0024 0.2445
vn 0.0002 -0.0002 -1.0000
vn -0.0001 0.8319 0.5549
vn -0.0003 -0.0012 1.0000
vn 1.0000 -0.0000 -0.0000
vn -0.0000 -1.0000 -0.0000
vt 1.000000 0.048301
vt 1.000000 1.000000
vt 0.049000 0.049000
vt 1.000000 0.047245
vt 0.049773 0.047613
vt 0.986395 0.034994
vt 1.000000 0.049000
vt 0.035150 0.035150
vt 0.090095 0.042790
vt 1.000000 0.035150
vt 0.047245 0.047245
vt 0.375000 0.750000
vt 0.387950 0.750000
vt 0.387948 0.820227
vt 0.375000 0.820275
vt 0.375000 0.625152
vt 0.415707 0.625165
vt 0.304714 0.749910
vt 0.289158 0.625166
s 0
usemtl Material
f 9/1/1 2/2/1 10/3/1
f 11/4/2 2/2/2 9/5/2
f 12/6/3 10/7/3 2/2/3 13/8/3
f 14/9/4 13/10/4 2/2/4 11/11/4
f 1/12/5 8/13/5 5/14/5 3/15/5
f 8/13/6 1/12/6 7/16/6 6/17/6
f 7/16/7 1/12/7 3/18/7 4/19/7
