# Blender 4.4.0
# www.blender.org
mtllib Untitled13.mtl
o Cube_cell.012
v -2.000000 3.000000 1.000000
v -1.477614 1.125629 0.348987
v -1.447218 1.073956 0.449057
v -1.282533 1.288504 1.000000
v -1.282052 2.885580 1.000000
v -1.282064 3.000000 1.000000
v -1.599961 3.000000 -0.059111
v -2.000000 3.000000 -0.165838
v -2.000000 1.126076 0.209587
v -1.999824 0.685738 1.000000
v -1.796933 0.716671 1.000000
v -2.000000 1.121779 0.217238
v -1.282533 1.288504 1.000000
v -1.282052 2.885580 1.000000
v -1.282064 3.000000 1.000000
v -1.599961 3.000000 -0.059111
v -2.000000 3.000000 -0.165838
v -2.000000 1.126076 0.209587
v -1.999824 0.685738 1.000000
v -1.796933 0.716671 1.000000
v -2.000000 1.121779 0.217238
vn 0.9581 -0.0003 -0.2863
vn 0.9578 0.0001 -0.2875
vn 0.9567 -0.0009 -0.2911
vn 0.1323 -0.8679 -0.4788
vn 0.7429 -0.6683 0.0382
vn 0.1275 -0.8665 -0.4827
vn 0.1288 -0.8646 -0.4856
vn -0.0000 1.0000 -0.0000
vn -1.0000 -0.0000 0.0001
vn -0.0000 -0.0000 1.0000
vn 0.2530 -0.1900 -0.9486
vt 1.000000 0.916798
vt 0.082633 0.000000
vt 1.000000 0.000000
vt 0.974704 0.943633
vt 0.916798 0.916798
vt 0.000000 0.000000
vt 0.974769 0.000000
vt 0.974769 0.974769
vt 0.082612 0.000000
vt 1.000000 0.916937
vt 0.916937 0.916937
vt 0.917367 0.000000
vt 1.000000 1.000000
vt 0.082525 0.082320
vt 1.000000 0.083201
vt 0.083201 0.083201
vt 0.087618 0.000000
vt 0.875000 0.604270
vt 0.875000 0.750000
vt 0.830129 0.750000
vt 0.849998 0.617611
vt 0.625000 0.000000
vt 0.625000 0.145730
vt 0.546920 0.098802
vt 0.546741 0.097845
vt 0.528571 0.000000
vt 0.625000 0.955129
vt 0.625000 1.000000
vt 0.528572 0.999989
vt 0.529861 0.987308
vt 0.553688 0.955158
vt 0.620232 0.955128
vt 0.912382 0.000000
vt 0.974246 0.078533
vt 0.974091 0.974091
s 0
usemtl Material
f 14/1/1 13/2/1 3/3/1
f 15/4/2 14/5/2 3/6/2 16/7/2
f 3/6/3 2/3/3 16/8/3
f 19/9/4 3/3/4 20/10/4
f 20/11/5 3/6/5 13/12/5
f 3/13/6 19/14/6 21/15/6
f 2/3/7 3/13/7 21/16/7 18/17/7
f 17/18/8 1/19/8 6/20/8 7/21/8
f 1/22/9 17/23/9 9/24/9 12/25/9 10/26/9
f 6/27/10 1/28/10 10/29/10 11/30/10 4/31/10 5/32/10
f 2/6/11 18/33/11 8/34/11 16/35/11
