# Blender 4.4.0
# www.blender.org
mtllib Untitled2.mtl
o Cube_cell.001
v 0.595336 -1.048563 -0.708477
v 0.713514 -1.032744 -0.889317
v 0.595870 -1.042992 -0.705698
v 0.256032 0.561714 -0.968030
v -1.274732 1.124200 0.246846
v -0.044086 1.124110 -0.984243
v -1.477174 1.123551 0.347088
v -1.446493 1.073425 0.447817
v -2.000000 0.259377 1.000000
v -2.000000 -1.395146 0.064788
v -2.000000 -1.394995 -1.000000
v 0.632508 -1.044028 -1.000000
v -2.000000 -1.395138 0.070014
v 0.731792 -1.030725 -1.000000
v -1.678864 0.473153 1.000000
v -1.695829 0.518773 1.000000
v 0.814067 -0.839651 -1.000000
v -1.712408 0.562059 1.000000
v -2.000000 1.123694 0.198024
v -2.000000 1.124054 -1.000000
v -0.087295 1.124466 -1.000000
v 0.742159 -1.029255 -1.000000
v 0.839439 -0.909540 -1.000000
v -1.736023 0.604234 1.000000
v -1.797705 0.713669 1.000000
v -2.000000 0.683883 1.000000
v -2.000000 1.119518 0.215547
v 0.356754 0.378132 -1.000000
v 0.089119 0.877662 -1.000000
v -2.000000 1.123650 0.207916
v -0.043065 1.124198 -1.000000
v -1.678864 0.473153 1.000000
v -1.695829 0.518773 1.000000
v 0.632508 -1.044028 -1.000000
v -2.000000 -1.394995 -1.000000
v -2.000000 -1.395146 0.064788
v 0.731792 -1.030725 -1.000000
v -2.000000 -1.395138 0.070014
v -2.000000 0.259377 1.000000
v -1.712408 0.562059 1.000000
v -2.000000 1.123694 0.198024
v -2.000000 1.124054 -1.000000
v 0.839439 -0.909540 -1.000000
v 0.814067 -0.839651 -1.000000
v -0.087295 1.124466 -1.000000
v 0.742159 -1.029255 -1.000000
v -1.736023 0.604234 1.000000
v -1.797705 0.713669 1.000000
v -2.000000 0.683883 1.000000
v -2.000000 1.119518 0.215547
v 0.356754 0.378132 -1.000000
v 0.089119 0.877662 -1.000000
v -2.000000 1.123650 0.207916
v -0.043065 1.124198 -1.000000
vn -0.0000 -0.0000 -1.0000
vn 0.1322 -0.9912 -0.0001
vn 0.1328 -0.9911 0.0015
vn 0.3266 -0.4469 0.8328
vn 0.6825 0.2614 0.6826
vn 0.7637 -0.6206 0.1781
vn 0.1403 -0.9901 0.0051
vn 0.7911 -0.3735 0.4843
vn 0.7953 -0.3300 0.5085
vn 0.6574 0.3681 0.6575
vn 0.6559 0.3697 0.6581
vn -0.1275 0.8662 0.4832
vn -0.1298 0.8668 0.4814
vn 0.6853 0.2574 0.6813
vn 0.8796 0.4713 0.0650
vn 0.6573 0.3697 0.6568
vn -0.1256 0.8724 0.4724
vn -0.0010 1.0000 0.0045
vn 0.0061 1.0000 0.0060
vn 0.1904 0.9008 0.3903
vn 0.6554 0.3760 0.6551
vn 0.8797 0.4717 0.0597
vn -0.0003 1.0000 0.0001
vn 0.3107 -0.4658 0.8285
vn -1.0000 -0.0000 -0.0000
vn 0.6834 0.2564 0.6835
vn -0.0000 -0.0000 1.0000
vt 0.546853 0.369544
vt 0.546842 0.372308
vt 0.536569 0.380570
vt 0.515756 0.397297
vt 0.465015 0.425879
vt 0.462103 0.427465
vt 0.457114 0.421385
vt 0.457053 0.420737
vt 0.456499 0.414532
vt 0.441875 0.250000
vt 0.546836 0.250000
vt 0.061823 0.044127
vt 1.000000 0.043662
vt 1.000000 0.982175
vt 0.043662 0.043662
vt 0.145243 0.000000
vt 1.000000 0.000000
vt 1.000000 0.981099
vt 0.982175 0.982175
vt 0.000000 0.000000
vt 0.971570 0.971570
vt 0.975405 0.000000
vt 0.975226 0.975226
vt 1.000000 0.690822
vt 0.013854 0.000000
vt 0.690822 0.690822
vt 1.000000 0.854757
vt 1.000000 1.000000
vt 1.000000 0.005306
vt 0.005256 0.000000
vt 1.000000 0.917541
vt 0.975405 0.975405
vt 0.917130 0.000000
vt 0.917541 0.917541
vt 0.917130 0.917130
vt 0.916441 0.000000
vt 0.916441 0.916441
vt 0.917551 0.000000
vt 1.000000 0.953619
vt 0.612189 0.000000
vt 0.612189 0.612189
vt 0.762065 0.000000
vt 1.000000 0.913133
vt 0.917551 0.917551
vt 1.000000 0.935824
vt 0.913133 0.913133
vt 1.000000 0.038433
vt 0.240228 0.000000
vt 0.240229 0.240229
vt 0.237935 0.000000
vt 0.961267 0.951113
vt 0.064176 0.000000
vt 0.961567 0.000000
vt 0.836596 0.051447
vt 0.981099 0.981099
vt 0.971570 0.000000
vt 0.441869 0.116901
vt 0.441869 0.116248
vt 0.510807 0.000000
vt 0.528495 0.000000
vt 0.546647 0.098057
vt 0.546819 0.099011
vt 0.546821 0.100247
vt 0.046381 0.000000
vt 1.000000 0.975226
vt 0.971525 0.971525
vt 0.994745 0.000000
vt 0.528495 1.000000
vt 0.510807 1.000000
vt 0.519718 0.979921
vt 0.521616 0.980989
vt 0.523419 0.982026
vt 0.525176 0.983501
vt 0.529736 0.987357
s 0
usemtl Material
f 21/1/1 54/2/1 29/3/1 51/4/1 17/5/1 23/6/1 22/7/1 37/8/1 34/9/1 35/10/1 20/11/1
f 11/12/2 12/13/2 36/14/2
f 12/15/3 14/16/3 1/17/3 38/18/3 36/19/3
f 1/20/4 3/17/4 32/21/4
f 40/22/5 33/23/5 4/20/5
f 2/17/6 46/24/6 43/25/6
f 46/26/7 2/20/7 1/17/7 14/27/7
f 1/28/8 2/20/8 43/29/8
f 43/30/9 3/17/9 1/28/9
f 8/17/10 47/31/10 40/32/10 4/20/10
f 48/33/11 47/34/11 8/20/11
f 48/35/12 8/20/12 49/36/12
f 49/37/13 8/20/13 50/38/13
f 44/39/14 28/40/14 4/17/14
f 6/17/15 4/28/15 28/41/15 52/42/15
f 6/20/16 8/17/16 4/28/16
f 8/20/17 7/17/17 53/43/17 50/44/17
f 7/20/18 5/17/18 41/45/18 53/46/18
f 45/47/19 5/28/19 6/20/19 31/48/19
f 7/20/20 8/17/20 5/28/20
f 8/20/21 6/17/21 5/28/21
f 31/49/22 6/20/22 52/50/22
f 42/51/23 41/52/23 5/20/23 45/53/23
f 39/54/24 38/55/24 1/20/24 32/56/24
f 35/10/25 10/57/25 13/58/25 9/59/25 26/60/25 27/61/25 30/62/25 19/63/25 20/11/25
f 44/64/26 4/17/26 33/65/26 32/66/26 3/20/26 43/67/26
f 26/68/27 9/69/27 15/70/27 16/71/27 18/72/27 24/73/27 25/74/27
