# Blender 4.4.0
# www.blender.org
mtllib Untitled5.mtl
o Cube_cell.004
v 1.248776 0.563378 -0.115292
v 0.256153 0.563611 -0.965838
v 1.576384 1.873647 0.727512
v 1.154730 1.873596 0.365529
v -0.143576 1.874498 0.798329
v 0.018083 1.348202 -0.834438
v -0.412024 1.486732 -0.274433
v -0.043899 1.124604 -0.982725
v -1.446001 1.073525 0.448950
v -1.271367 1.124677 0.245125
v -1.775763 0.680016 1.000000
v -1.783550 0.693799 1.000000
v -1.792851 0.710330 1.000000
v -1.709046 0.563222 1.000000
v -1.795657 0.715368 1.000000
v -1.280907 1.287758 1.000000
v 1.249671 0.563137 1.000000
v 1.576821 1.873701 1.000000
v -1.044209 1.419203 1.000000
v -0.224084 1.874247 1.000000
v 1.233953 1.873868 1.000000
v -1.775763 0.680016 1.000000
v -1.783550 0.693799 1.000000
v -1.792851 0.710330 1.000000
v -1.709046 0.563222 1.000000
v -1.795657 0.715368 1.000000
v -1.280907 1.287758 1.000000
v 1.249671 0.563137 1.000000
v 1.576821 1.873701 1.000000
v -1.044209 1.419203 1.000000
v -0.224084 1.874247 1.000000
v 1.233953 1.873868 1.000000
vn 0.6176 0.3086 -0.7234
vn -0.6566 -0.3710 -0.6567
vn -0.6571 -0.3697 -0.6569
vn 0.6191 0.3092 -0.7219
vn 0.9703 -0.2421 -0.0010
vn -0.1057 0.9433 -0.3145
vn -0.1042 0.9435 -0.3144
vn -0.6557 -0.3746 -0.6556
vn -0.7430 0.6682 -0.0372
vn -0.6589 -0.3670 -0.6566
vn -0.4787 0.8559 -0.1954
vn -0.5890 0.5533 -0.5890
vn -0.4764 0.8586 -0.1891
vn 0.0003 1.0000 0.0013
vn -0.4765 0.8582 -0.1909
vn 0.0005 1.0000 -0.0005
vn -0.0000 -0.0000 1.0000
vn -0.0000 -1.0000 -0.0002
vt 0.000000 0.000000
vt 1.000000 0.000000
vt 1.000000 1.000000
vt 0.975269 0.000000
vt 1.000000 0.024525
vt 0.024525 0.024525
vt 0.061946 0.000000
vt 1.000000 0.042528
vt 0.844411 0.000000
vt 1.000000 0.024731
vt 0.025023 0.025023
vt 1.000000 0.917042
vt 0.082684 0.000000
vt 1.000000 0.938054
vt 0.917042 0.917042
vt 1.000000 0.200043
vt 0.197619 0.197619
vt 1.000000 0.199334
vt 0.200043 0.200043
vt 1.000000 0.197619
vt 0.917316 0.000000
vt 0.155589 0.000000
vt 0.199333 0.199333
vt 0.578094 0.889005
vt 0.559133 0.940263
vt 0.553657 0.955057
vt 0.529807 0.987229
vt 0.529597 0.987053
vt 0.528908 0.986472
vt 0.528334 0.985985
vt 0.523468 0.981815
vt 0.523464 0.796896
vt 0.578071 0.776449
vt 0.578078 0.797878
vt 0.042528 0.042528
vt 1.000000 0.025023
s 0
usemtl Material
f 6/1/1 2/2/1 8/3/1
f 22/4/2 23/5/2 8/3/2 2/1/2
f 10/2/3 8/3/3 23/6/3 24/7/3
f 3/1/4 1/1/4 2/2/4 6/3/4 4/3/4
f 28/8/5 1/3/5 3/1/5 29/9/5
f 7/1/6 5/2/6 6/3/6
f 5/1/7 4/2/7 6/3/7
f 22/10/8 2/3/8 25/11/8
f 9/2/9 26/12/9 27/13/9
f 9/1/10 10/2/10 24/14/10 26/15/10
f 9/1/11 7/2/11 10/3/11
f 7/1/12 6/2/12 8/3/12 10/1/12
f 31/16/13 5/3/13 30/17/13
f 32/18/14 5/3/14 31/19/14
f 30/20/15 5/2/15 7/3/15 9/1/15 27/21/15
f 29/22/16 3/2/16 4/3/16 5/3/16 32/23/16
f 20/24/17 19/25/17 16/26/17 15/27/17 13/28/17 12/29/17 11/30/17 14/31/17 17/32/17 18/33/17 21/34/17
f 1/3/18 28/35/18 25/36/18 2/3/18
