# Blender 4.4.0
# www.blender.org
mtllib Untitled7.mtl
o Cube_cell.006
v 1.251388 0.562872 -0.114802
v 1.251035 -0.679470 -0.913607
v 1.578888 1.874695 0.728690
v 1.250838 -0.679415 1.000000
v 2.000000 -0.762520 1.000000
v 2.000000 -0.762526 -0.966560
v 2.000000 2.114846 0.883402
v 2.000000 2.115181 1.000000
v 1.976462 2.101782 1.000000
v 1.578874 1.874762 1.000000
v 1.250872 0.562751 1.000000
v 2.000000 -0.762520 1.000000
v 1.250838 -0.679415 1.000000
v 2.000000 -0.762526 -0.966560
v 2.000000 2.114846 0.883402
v 2.000000 2.115181 1.000000
v 1.976462 2.101782 1.000000
v 1.578874 1.874762 1.000000
v 1.250872 0.562751 1.000000
vn -0.4947 0.8691 -0.0025
vn -0.4959 0.8684 -0.0002
vn -1.0000 0.0002 -0.0002
vn 1.0000 -0.0000 -0.0000
vn -0.9702 0.2425 -0.0004
vn 0.0005 0.5408 -0.8412
vn -0.0000 -0.0000 1.0000
vn -0.1102 -0.9939 -0.0000
vt 0.844691 0.000000
vt 0.894634 0.108266
vt 0.894154 0.894154
vt 0.000000 0.000000
vt 0.844691 0.844691
vt 0.844269 0.000000
vt 0.974611 0.000000
vt 0.956739 0.956739
vt 0.468228 0.504180
vt 0.588119 0.735425
vt 0.588133 0.750000
vt 0.468228 0.750000
vt 1.000000 0.000000
vt 1.000000 0.956739
vt 0.844269 0.844269
vt 0.894154 0.000000
vt 0.937344 0.937344
vt 1.000000 1.000000
vt 0.587574 0.751471
vt 0.578115 0.776320
vt 0.523448 0.796821
vt 0.471691 0.796823
vt 0.937344 0.000000
vt 0.962771 0.937075
vt 0.025389 0.000000
s 0
usemtl Material
f 17/1/1 16/2/1 7/3/1 3/4/1
f 17/5/2 3/4/2 18/6/2
f 1/4/3 2/4/3 4/7/3 19/8/3
f 6/9/4 15/10/4 8/11/4 12/12/4
f 1/13/5 19/14/5 18/15/5 3/4/5
f 3/4/6 7/16/6 14/17/6 2/18/6 1/4/6
f 8/11/7 9/19/7 10/20/7 11/21/7 13/22/7 12/12/7
f 2/4/8 14/23/8 5/24/8 4/25/8
