# Blender 4.4.0
# www.blender.org
mtllib Untitled8.mtl
o Cube_cell.007
v 2.000000 -3.000000 -1.000000
v 0.625807 -2.020783 -0.001394
v 0.494687 -1.729287 -0.264114
v 0.544597 -1.391608 -0.567420
v 0.714796 -1.034085 -0.889577
v 0.293930 -2.493253 -0.664478
v 0.420877 -1.729517 -0.410021
v 2.000000 -3.000000 -0.000906
v 2.000000 -2.020760 -0.001122
v 0.625826 -3.000000 -0.001248
v 0.293740 -3.000000 -0.664666
v 0.249416 -3.000000 -0.992654
v 0.251247 -3.000000 -1.000000
v 0.261460 -2.959085 -1.000000
v 0.332108 -2.676378 -1.000000
v 0.743688 -1.030185 -1.000000
v 2.000000 -0.911408 -1.000000
v 0.298527 -3.000000 -0.655058
v 0.839377 -0.911391 -1.000000
v 2.000000 -3.000000 -0.000906
v 2.000000 -2.020760 -0.001122
v 0.625826 -3.000000 -0.001248
v 0.249416 -3.000000 -0.992654
v 0.293740 -3.000000 -0.664666
v 0.251247 -3.000000 -1.000000
v 0.261460 -2.959085 -1.000000
v 0.332108 -2.676378 -1.000000
v 0.743688 -1.030185 -1.000000
v 2.000000 -0.911408 -1.000000
v 0.839377 -0.911391 -1.000000
v 0.298527 -3.000000 -0.655058
vn -0.9910 0.0003 0.1339
vn -0.9426 0.2356 -0.2366
vn -0.9422 0.2356 -0.2382
vn -0.9429 0.2353 -0.2356
vn -0.0038 0.6685 0.7437
vn -0.8923 0.0054 0.4514
vn -0.0000 0.6691 0.7432
vn -0.8950 0.0002 0.4460
vn -0.7865 0.4730 0.3971
vn -0.0015 0.6698 0.7425
vn -0.7662 0.6172 -0.1787
vn -0.0002 0.0002 1.0000
vn 1.0000 -0.0000 -0.0000
vn -0.0000 -1.0000 -0.0000
vn -0.0000 -0.0000 -1.0000
vn -0.8941 -0.0001 0.4479
vt 1.000000 0.000000
vt 1.000000 0.909948
vt 0.089660 0.000000
vt 0.945094 0.945094
vt 0.000000 0.000000
vt 1.000000 0.814603
vt 0.690013 0.000000
vt 0.814603 0.814603
vt 1.000000 0.945094
vt 0.982491 0.951900
vt 0.909948 0.909948
vt 1.000000 1.000000
vt 0.966684 0.934175
vt 0.009659 0.000000
vt 1.000000 0.964835
vt 1.000000 0.910340
vt 0.962201 0.962201
vt 0.036800 0.000000
vt 0.036801 0.036801
vt 1.000000 0.309987
vt 0.951579 0.000000
vt 0.986337 0.950975
vt 0.035165 0.000000
vt 0.415802 0.624860
vt 0.375000 0.624887
vt 0.375000 0.500000
vt 0.462025 0.500000
vt 0.268359 0.541917
vt 0.265589 0.500918
vt 0.265703 0.500000
vt 0.289114 0.624844
vt 0.268658 0.543118
vt 0.375000 0.390703
vt 0.376705 0.391341
vt 0.388484 0.395757
vt 0.457076 0.421481
vt 0.462025 0.427578
vt 0.962201 0.000000
vt 1.000000 0.048421
s 0
usemtl Material
f 6/1/1 23/2/1 24/3/1
f 26/4/2 4/5/2 5/1/2 27/6/2
f 5/5/3 28/7/3 27/8/3
f 7/5/4 4/1/4 26/9/4 25/10/4 23/11/4 6/5/4
f 4/5/5 3/1/5 2/12/5
f 3/5/6 7/1/6 2/12/6
f 29/13/7 30/14/7 4/5/7 2/1/7 21/15/7
f 7/5/8 6/1/8 24/16/8 31/17/8
f 3/5/9 4/1/9 7/12/9
f 30/18/10 5/1/10 4/12/10
f 5/12/11 30/19/11 28/20/11
f 22/21/12 20/22/12 21/23/12 2/5/12
f 9/24/13 8/25/13 1/26/13 17/27/13
f 11/28/14 12/29/14 13/30/14 1/26/14 8/25/14 10/31/14 18/32/14
f 17/27/15 1/26/15 13/33/15 14/34/15 15/35/15 16/36/15 19/37/15
f 7/5/16 31/38/16 22/39/16 2/12/16
